<?xml version="1.0" encoding="UTF-8" standalone="no"?>
<!DOCTYPE svg PUBLIC "-//W3C//DTD SVG 1.1//EN" "http://www.w3.org/Graphics/SVG/1.1/DTD/svg11.dtd">
<svg width="100%" height="100%" viewBox="0 0 192 192" version="1.1" xmlns="http://www.w3.org/2000/svg" xmlns:xlink="http://www.w3.org/1999/xlink" xml:space="preserve" xmlns:serif="http://www.serif.com/" style="fill-rule:evenodd;clip-rule:evenodd;stroke-linejoin:round;stroke-miterlimit:2;">
    <g id="aim-logo" transform="matrix(0.177778,0,0,0.1,0,0)">
        <rect x="0" y="0" width="1080" height="1920" style="fill:none;"/>
        <g transform="matrix(2.733579,0,0,4.859697,-181.397745,-106.548056)">
            <path d="M222.5,262.087C253.205,262.287 262.983,261.16 269.14,268.804C275.755,277.017 270.912,284.262 269.186,286.234C261.281,295.257 259.004,292.332 135.502,292.745C131.522,292.758 131.769,297.01 125.119,320.403C109.911,373.899 109.778,374.303 108.528,374.615C105.42,375.389 105.367,374.821 68.489,374.733C64.35,374.724 67.401,369.482 68.065,367.367C86.839,307.565 86.684,307.633 88.341,302.451C91.921,291.254 157.274,82.756 157.693,81.565C163.722,64.425 189.14,54.54 205.061,76.798C208.406,81.473 233.354,116.351 246.186,135.715C250.113,141.641 239.093,150.536 232.555,151.748C216.246,154.77 211.822,145.147 196.195,117.675C190.085,106.932 183.447,114.911 182.947,115.747C181.758,117.736 154.242,216.778 151.797,225.578C142.655,258.487 140.095,260.141 143.554,261.11C145.248,261.584 216.184,262.046 222.5,262.087Z"/>
        </g>
        <g transform="matrix(2.733579,0,0,4.859697,-181.397745,-106.548056)">
            <path d="M347.735,125.441C346.378,120.783 345.432,115.057 342.57,113.394C334.713,108.83 332.436,116.373 319.015,139.225C305.56,162.133 285.907,150.905 280.645,139.439C279.505,136.954 286.921,128.699 321.981,77.85C338.589,53.762 361.081,66.17 367.189,75.7C369.469,79.256 369.513,79.336 441.863,310.398C461.399,372.79 462.161,373.084 461.177,374.203C460.388,375.1 419.215,374.82 418.581,374.362C416.712,373.01 362.369,176.066 347.735,125.441Z" style="fill:rgb(203,102,2);"/>
        </g>
        <g transform="matrix(2.733579,0,0,4.859697,-181.397745,-106.548056)">
            <path d="M348.423,299.548C358.989,318.29 392.017,373.022 391.164,374.242C390.178,375.652 355.589,374.794 352.496,374.717C348.512,374.618 349.448,372.649 315.978,316.224C312.506,310.371 276.505,249.68 273.57,242.474C267.387,227.294 283.761,218.013 285.732,216.896C293.89,212.272 296.347,210.576 297.233,211.757C300.177,215.68 344.369,292.501 348.423,299.548Z"/>
        </g>
        <g transform="matrix(2.733579,0,0,4.859697,-181.397745,-106.548056)">
            <path d="M235.146,171.426C243.615,142.912 278.496,152.323 279.89,174.472C281.893,206.267 230.174,207.773 235.146,171.426Z" style="fill:rgb(203,102,2);"/>
        </g>
    </g>
</svg>
